# 3ds Max Wavefront OBJ Exporter v0.97b - (c)2007 guruware
# File Created: 16.09.2019 18:14:36

#
# object 2do_piso
#

v  10.0495 3.9100 -7.8761
v  10.0495 3.9100 0.7132
v  -6.3307 3.9100 0.7132
v  -6.3307 3.9100 -7.8761
v  10.0495 7.8232 -7.8761
v  -6.3307 7.8232 -7.8761
v  -6.3307 7.8232 0.7132
v  10.0495 7.8232 0.7132
v  10.0503 3.9100 0.7047
v  10.0503 3.9100 11.5334
v  4.3941 3.9100 11.5334
v  4.3941 3.9100 0.7047
v  10.0503 7.8232 0.7047
v  4.3941 7.8232 0.7047
v  4.3941 7.8232 11.5334
v  10.0503 7.8232 11.5334
v  4.4103 7.7386 11.5338
v  6.0322 7.7363 11.5338
v  6.3382 10.3812 11.5338
v  4.4103 8.0050 11.5338
v  6.8408 7.7363 11.5338
v  6.9428 10.3812 11.5338
v  7.6495 7.7363 11.5338
v  7.5475 10.3812 11.5338
v  8.4581 7.7363 11.5338
v  8.1521 10.3812 11.5338
v  10.0698 7.7386 11.5338
v  10.0698 8.0050 11.5338
# 28 vertices

vn 0.0000 -1.0000 -0.0000
vn 0.0000 1.0000 -0.0000
vn -0.0000 0.0000 -1.0000
vn -1.0000 0.0000 0.0000
vn 0.0000 0.0000 1.0000
vn 1.0000 0.0000 -0.0000
vn 0.5774 0.5774 -0.5774
vn -0.5774 0.5774 -0.5774
vn 0.5774 0.5774 0.5774
vn -0.5774 0.5774 0.5774
# 10 vertex normals

vt 1.6282 0.2498 0.0000
vt 1.6282 0.5034 0.0000
vt 1.1445 0.5034 0.0000
vt 1.1445 0.2498 0.0000
vt 1.6463 0.5097 0.0000
vt 1.1626 0.5097 0.0000
vt 1.1626 0.2561 0.0000
vt 1.6463 0.2561 0.0000
vt 0.9864 0.9768 0.0000
vt 0.3625 0.9768 0.0000
vt 0.3625 0.7348 0.0000
vt 0.9864 0.7348 0.0000
vt 0.3391 0.9841 0.0000
vt 0.0119 0.9841 0.0000
vt 0.0119 0.7421 0.0000
vt 0.3391 0.7421 0.0000
vt 0.3602 0.4104 0.0000
vt 0.9858 0.4104 0.0000
vt 0.9858 0.6257 0.0000
vt 0.3602 0.6257 0.0000
vt 0.3411 0.6290 0.0000
vt 0.0130 0.6290 0.0000
vt 0.0130 0.4137 0.0000
vt 0.3411 0.4137 0.0000
vt 0.3328 0.1770 0.0000
vt 0.0130 0.1770 0.0000
vt 0.0130 0.0100 0.0000
vt 0.3328 0.0100 0.0000
vt 1.2850 0.4476 0.0000
vt 1.2850 0.2806 0.0000
vt 1.6048 0.2806 0.0000
vt 1.6048 0.4476 0.0000
vt 1.4036 0.4572 0.0000
vt 1.4036 0.3416 0.0000
vt 1.5706 0.3416 0.0000
vt 1.5706 0.4572 0.0000
vt 0.7672 0.1789 0.0000
vt 0.7672 0.3479 0.0000
vt 0.3511 0.3479 0.0000
vt 0.3511 0.1789 0.0000
vt 0.7746 0.0065 0.0000
vt 0.7746 0.1735 0.0000
vt 0.9963 0.1735 0.0000
vt 0.9963 0.0065 0.0000
vt 0.7658 0.0127 0.0000
vt 0.7658 0.1753 0.0000
vt 0.3502 0.1753 0.0000
vt 0.3502 0.0127 0.0000
vt 0.8698 0.2878 0.0000
vt 0.5178 0.2092 0.0000
vt 0.6662 0.3694 0.0000
vt 0.5178 0.4870 0.0000
vt 0.7752 0.1733 0.0000
vt 0.8393 0.1732 0.0000
vt 0.8514 0.2839 0.0000
vt 0.7752 0.1844 0.0000
vt 0.8694 0.1732 0.0000
vt 0.8734 0.2839 0.0000
vt 0.9013 0.1732 0.0000
vt 0.8973 0.2839 0.0000
vt 0.9332 0.1732 0.0000
vt 0.9212 0.2839 0.0000
vt 0.9969 0.1733 0.0000
vt 0.9969 0.1844 0.0000
# 64 texture coords

g 2do_piso
s 2
f 1/1/1 2/2/1 3/3/1 4/4/1 
s 4
f 5/5/2 6/6/2 7/7/2 8/8/2 
s 8
f 1/9/3 4/10/3 6/11/3 5/12/3 
s 16
f 4/13/4 3/14/4 7/15/4 6/16/4 
s 32
f 3/17/5 2/18/5 8/19/5 7/20/5 
s 64
f 2/21/6 1/22/6 5/23/6 8/24/6 
s 2
f 9/25/1 10/26/1 11/27/1 12/28/1 
s 4
f 13/29/2 14/30/4 14/30/2 15/31/2 
f 14/30/2 15/31/4 15/31/2 
f 15/31/2 16/32/4 16/32/2 13/29/2 
f 13/29/2 16/32/2 13/29/4 
s 8
f 12/33/3 14/34/4 14/34/3 13/35/3 
f 9/36/3 12/33/3 13/35/3 13/35/4 
s 16
f 11/37/4 15/38/4 15/38/4 14/39/4 
f 12/40/4 11/37/4 14/39/4 14/39/4 
s 32
f 10/41/5 16/42/4 16/42/5 15/43/5 
f 11/44/5 10/41/5 15/43/5 15/43/4 
s 64
f 9/45/6 13/46/4 13/46/6 16/47/6 
f 10/48/6 9/45/6 16/47/6 16/47/4 
s off
f 13/49/7 13/49/7 13/49/7 
f 13/49/7 13/49/7 13/49/7 
f 13/49/7 13/49/7 13/49/7 
f 14/50/8 14/50/8 14/50/8 
f 14/50/8 14/50/8 14/50/8 
f 14/50/8 14/50/8 14/50/8 
f 16/51/9 16/51/9 16/51/9 
f 16/51/9 16/51/9 16/51/9 
f 16/51/9 16/51/9 16/51/9 
f 15/52/10 15/52/10 15/52/10 
f 15/52/10 15/52/10 15/52/10 
f 15/52/10 15/52/10 15/52/10 
s 32
f 17/53/5 18/54/5 19/55/5 20/56/5 
f 18/54/5 21/57/5 22/58/5 19/55/5 
f 21/57/5 23/59/5 24/60/5 22/58/5 
f 23/59/5 25/61/5 26/62/5 24/60/5 
f 25/61/5 27/63/5 28/64/5 26/62/5 
# 22 polygons - 14 triangles

