# 3ds Max Wavefront OBJ Exporter v0.97b - (c)2007 guruware
# File Created: 16.09.2019 18:14:49

#
# object Balcon
#

v  4.4815 3.8612 0.7056
v  4.4815 3.8612 8.2845
v  -6.7741 3.8612 8.2845
v  -6.7741 3.8612 0.7056
v  4.4815 4.3368 0.7056
v  -6.7741 4.3368 0.7056
v  -6.7741 4.3368 8.2845
v  4.4815 4.3368 8.2845
v  -6.6812 4.7260 0.7056
v  -6.6812 4.7260 8.2845
v  -6.7741 4.7260 8.2845
v  -6.7741 4.7260 0.7056
v  -6.6812 4.9758 0.7056
v  -6.7741 4.9758 0.7056
v  -6.7741 4.9758 8.2845
v  -6.6812 4.9758 8.2845
v  4.4815 4.7260 8.1832
v  4.4815 4.7260 8.2845
v  -6.6856 4.7260 8.2845
v  -6.6856 4.7260 8.1832
v  4.4815 4.9758 8.1832
v  -6.6856 4.9758 8.1832
v  -6.6856 4.9758 8.2845
v  4.4815 4.9758 8.2845
v  -6.6812 5.2137 0.7056
v  -6.6812 5.2137 8.2845
v  -6.7741 5.2137 8.2845
v  -6.7741 5.2137 0.7056
v  -6.6812 5.4635 0.7056
v  -6.7741 5.4635 0.7056
v  -6.7741 5.4635 8.2845
v  -6.6812 5.4635 8.2845
v  4.4815 5.2137 8.1832
v  4.4815 5.2137 8.2845
v  -6.6856 5.2137 8.2845
v  -6.6856 5.2137 8.1832
v  4.4815 5.4635 8.1832
v  -6.6856 5.4635 8.1832
v  -6.6856 5.4635 8.2845
v  4.4815 5.4635 8.2845
v  -6.6812 5.7028 0.7056
v  -6.6812 5.7028 8.2845
v  -6.7741 5.7028 8.2845
v  -6.7741 5.7028 0.7056
v  -6.6812 5.9526 0.7056
v  -6.7741 5.9526 0.7056
v  -6.7741 5.9526 8.2845
v  -6.6812 5.9526 8.2845
v  4.4815 5.7028 8.1832
v  4.4815 5.7028 8.2845
v  -6.6856 5.7028 8.2845
v  -6.6856 5.7028 8.1832
v  4.4815 5.9526 8.1832
v  -6.6856 5.9526 8.1832
v  -6.6856 5.9526 8.2845
v  4.4815 5.9526 8.2845
v  -6.6845 4.3300 8.1859
v  -6.6845 4.3300 8.2825
v  -6.7767 4.3300 8.2825
v  -6.7767 4.3300 8.1859
v  -6.6845 5.9543 8.1859
v  -6.7767 5.9543 8.1859
v  -6.7767 5.9543 8.2825
v  -6.6845 5.9543 8.2825
v  -6.6845 4.3300 3.6018
v  -6.6845 4.3300 3.6983
v  -6.7767 4.3300 3.6983
v  -6.7767 4.3300 3.6018
v  -6.6845 5.9543 3.6018
v  -6.7767 5.9543 3.6018
v  -6.7767 5.9543 3.6983
v  -6.6845 5.9543 3.6983
v  -6.6845 4.3300 5.7665
v  -6.6845 4.3300 5.8631
v  -6.7767 4.3300 5.8631
v  -6.7767 4.3300 5.7665
v  -6.6845 5.9543 5.7665
v  -6.7767 5.9543 5.7665
v  -6.7767 5.9543 5.8631
v  -6.6845 5.9543 5.8631
v  -6.6845 4.3300 1.4793
v  -6.6845 4.3300 1.5759
v  -6.7767 4.3300 1.5759
v  -6.7767 4.3300 1.4793
v  -6.6845 5.9543 1.4793
v  -6.7767 5.9543 1.4793
v  -6.7767 5.9543 1.5759
v  -6.6845 5.9543 1.5759
v  -5.1115 4.3300 8.1859
v  -5.1115 4.3300 8.2825
v  -5.2038 4.3300 8.2825
v  -5.2038 4.3300 8.1859
v  -5.1115 5.9543 8.1859
v  -5.2038 5.9543 8.1859
v  -5.2038 5.9543 8.2825
v  -5.1115 5.9543 8.2825
v  -3.5003 4.3300 8.1859
v  -3.5003 4.3300 8.2825
v  -3.5926 4.3300 8.2825
v  -3.5926 4.3300 8.1859
v  -3.5003 5.9543 8.1859
v  -3.5926 5.9543 8.1859
v  -3.5926 5.9543 8.2825
v  -3.5003 5.9543 8.2825
v  -1.9254 4.3300 8.1859
v  -1.9254 4.3300 8.2825
v  -2.0176 4.3300 8.2825
v  -2.0176 4.3300 8.1859
v  -1.9254 5.9543 8.1859
v  -2.0176 5.9543 8.1859
v  -2.0176 5.9543 8.2825
v  -1.9254 5.9543 8.2825
v  -0.3758 4.3300 8.1859
v  -0.3758 4.3300 8.2825
v  -0.4681 4.3300 8.2825
v  -0.4681 4.3300 8.1859
v  -0.3758 5.9543 8.1859
v  -0.4681 5.9543 8.1859
v  -0.4681 5.9543 8.2825
v  -0.3758 5.9543 8.2825
v  1.0380 4.3300 8.1859
v  1.0380 4.3300 8.2825
v  0.9457 4.3300 8.2825
v  0.9457 4.3300 8.1859
v  1.0380 5.9543 8.1859
v  0.9457 5.9543 8.1859
v  0.9457 5.9543 8.2825
v  1.0380 5.9543 8.2825
v  2.6768 4.3300 8.1859
v  2.6768 4.3300 8.2825
v  2.5846 4.3300 8.2825
v  2.5846 4.3300 8.1859
v  2.6768 5.9543 8.1859
v  2.5846 5.9543 8.1859
v  2.5846 5.9543 8.2825
v  2.6768 5.9543 8.2825
# 136 vertices

vn 0.0000 -1.0000 -0.0000
vn 0.0000 1.0000 -0.0000
vn -0.0000 0.0000 -1.0000
vn -1.0000 -0.0000 0.0000
vn 0.0000 0.0000 1.0000
vn 1.0000 0.0000 -0.0000
vn 0.0000 -0.0000 -1.0000
vn 0.0000 0.0000 -1.0000
vn -0.0000 -0.0000 -1.0000
vn -1.0000 0.0000 0.0000
# 10 vertex normals

vt 1.6572 0.4676 0.0000
vt 1.6572 0.7909 0.0000
vt 1.1770 0.7909 0.0000
vt 1.1770 0.4676 0.0000
vt 0.4902 0.3333 0.0000
vt 0.0100 0.3333 0.0000
vt 0.0100 0.0100 0.0000
vt 0.4902 0.0100 0.0000
vt 0.9900 0.0303 0.0000
vt 0.5098 0.0303 0.0000
vt 0.5098 0.0100 0.0000
vt 0.9900 0.0100 0.0000
vt 0.8331 0.0702 0.0000
vt 0.5098 0.0702 0.0000
vt 0.5098 0.0499 0.0000
vt 0.8331 0.0499 0.0000
vt 0.9900 0.3732 0.0000
vt 0.5098 0.3732 0.0000
vt 0.5098 0.3529 0.0000
vt 0.9900 0.3529 0.0000
vt 0.3333 0.7162 0.0000
vt 0.0100 0.7162 0.0000
vt 0.0100 0.6959 0.0000
vt 0.3333 0.6959 0.0000
vt 0.8331 0.2926 0.0000
vt 0.5098 0.2926 0.0000
vt 0.5098 0.2886 0.0000
vt 0.8331 0.2886 0.0000
vt 0.0100 0.9085 0.0000
vt 0.0100 0.9045 0.0000
vt 0.3333 0.9045 0.0000
vt 0.3333 0.9085 0.0000
vt 0.9481 0.4573 0.0000
vt 0.9481 0.4533 0.0000
vt 0.9588 0.4533 0.0000
vt 0.9588 0.4573 0.0000
vt 0.3333 0.8371 0.0000
vt 0.0100 0.8371 0.0000
vt 0.0100 0.8265 0.0000
vt 0.3333 0.8265 0.0000
vt 0.4483 0.8304 0.0000
vt 0.4483 0.8265 0.0000
vt 0.4590 0.8265 0.0000
vt 0.4590 0.8304 0.0000
vt 0.8331 0.4942 0.0000
vt 0.5098 0.4942 0.0000
vt 0.5098 0.4835 0.0000
vt 0.8331 0.4835 0.0000
vt 0.9862 0.2347 0.0000
vt 0.9862 0.2390 0.0000
vt 0.5098 0.2390 0.0000
vt 0.5098 0.2347 0.0000
vt 0.4864 0.8610 0.0000
vt 0.0100 0.8610 0.0000
vt 0.0100 0.8567 0.0000
vt 0.4864 0.8567 0.0000
vt 0.4864 0.7464 0.0000
vt 0.0100 0.7464 0.0000
vt 0.0100 0.7357 0.0000
vt 0.4864 0.7357 0.0000
vt 0.4483 0.7002 0.0000
vt 0.4483 0.6959 0.0000
vt 0.4590 0.6959 0.0000
vt 0.4590 0.7002 0.0000
vt 0.9862 0.1004 0.0000
vt 0.5098 0.1004 0.0000
vt 0.5098 0.0898 0.0000
vt 0.9862 0.0898 0.0000
vt 0.5098 0.8679 0.0000
vt 0.5098 0.8635 0.0000
vt 0.5205 0.8635 0.0000
vt 0.5205 0.8679 0.0000
vt 0.8331 0.5957 0.0000
vt 0.5098 0.5957 0.0000
vt 0.5098 0.5917 0.0000
vt 0.8331 0.5917 0.0000
vt 0.5098 0.5656 0.0000
vt 0.5098 0.5616 0.0000
vt 0.8331 0.5616 0.0000
vt 0.8331 0.5656 0.0000
vt 0.9481 0.4875 0.0000
vt 0.9481 0.4835 0.0000
vt 0.9588 0.4835 0.0000
vt 0.9588 0.4875 0.0000
vt 0.8331 0.4640 0.0000
vt 0.5098 0.4640 0.0000
vt 0.5098 0.4533 0.0000
vt 0.8331 0.4533 0.0000
vt 0.9481 0.1845 0.0000
vt 0.9481 0.1805 0.0000
vt 0.9588 0.1805 0.0000
vt 0.9588 0.1845 0.0000
vt 0.3333 0.8069 0.0000
vt 0.0100 0.8069 0.0000
vt 0.0100 0.7962 0.0000
vt 0.3333 0.7962 0.0000
vt 0.9862 0.5377 0.0000
vt 0.9862 0.5420 0.0000
vt 0.5098 0.5420 0.0000
vt 0.5098 0.5377 0.0000
vt 0.9862 0.2151 0.0000
vt 0.5098 0.2151 0.0000
vt 0.5098 0.2107 0.0000
vt 0.9862 0.2107 0.0000
vt 0.9862 0.4035 0.0000
vt 0.5098 0.4035 0.0000
vt 0.5098 0.3928 0.0000
vt 0.9862 0.3928 0.0000
vt 0.5098 0.8070 0.0000
vt 0.5098 0.8027 0.0000
vt 0.5205 0.8027 0.0000
vt 0.5205 0.8070 0.0000
vt 0.9862 0.1307 0.0000
vt 0.5098 0.1307 0.0000
vt 0.5098 0.1200 0.0000
vt 0.9862 0.1200 0.0000
vt 0.5098 0.8374 0.0000
vt 0.5098 0.8331 0.0000
vt 0.5205 0.8331 0.0000
vt 0.5205 0.8374 0.0000
vt 0.3333 0.9386 0.0000
vt 0.0100 0.9386 0.0000
vt 0.0100 0.9346 0.0000
vt 0.3333 0.9346 0.0000
vt 0.5098 0.2625 0.0000
vt 0.5098 0.2586 0.0000
vt 0.8331 0.2586 0.0000
vt 0.8331 0.2625 0.0000
vt 0.4483 0.8002 0.0000
vt 0.4483 0.7962 0.0000
vt 0.4590 0.7962 0.0000
vt 0.4590 0.8002 0.0000
vt 0.8331 0.1609 0.0000
vt 0.5098 0.1609 0.0000
vt 0.5098 0.1503 0.0000
vt 0.8331 0.1503 0.0000
vt 0.9481 0.1542 0.0000
vt 0.9481 0.1503 0.0000
vt 0.9588 0.1503 0.0000
vt 0.9588 0.1542 0.0000
vt 0.8331 0.1912 0.0000
vt 0.5098 0.1912 0.0000
vt 0.5098 0.1805 0.0000
vt 0.8331 0.1805 0.0000
vt 0.4864 0.8806 0.0000
vt 0.4864 0.8850 0.0000
vt 0.0100 0.8850 0.0000
vt 0.0100 0.8806 0.0000
vt 0.9862 0.5181 0.0000
vt 0.5098 0.5181 0.0000
vt 0.5098 0.5138 0.0000
vt 0.9862 0.5138 0.0000
vt 0.9862 0.4337 0.0000
vt 0.5098 0.4337 0.0000
vt 0.5098 0.4231 0.0000
vt 0.9862 0.4231 0.0000
vt 0.5466 0.8070 0.0000
vt 0.5466 0.8027 0.0000
vt 0.5572 0.8027 0.0000
vt 0.5572 0.8070 0.0000
vt 0.4864 0.7766 0.0000
vt 0.0100 0.7766 0.0000
vt 0.0100 0.7660 0.0000
vt 0.4864 0.7660 0.0000
vt 0.9481 0.0542 0.0000
vt 0.9481 0.0499 0.0000
vt 0.9588 0.0499 0.0000
vt 0.9588 0.0542 0.0000
vt 0.6093 0.7465 0.0000
vt 0.6052 0.7465 0.0000
vt 0.6052 0.7425 0.0000
vt 0.6093 0.7425 0.0000
vt 0.8915 0.6560 0.0000
vt 0.8915 0.6520 0.0000
vt 0.8956 0.6520 0.0000
vt 0.8956 0.6560 0.0000
vt 0.3917 0.9686 0.0000
vt 0.3917 0.9647 0.0000
vt 0.4610 0.9647 0.0000
vt 0.4610 0.9686 0.0000
vt 0.8527 0.0540 0.0000
vt 0.8527 0.0499 0.0000
vt 0.9220 0.0499 0.0000
vt 0.9220 0.0540 0.0000
vt 0.8915 0.3227 0.0000
vt 0.8915 0.3187 0.0000
vt 0.9607 0.3187 0.0000
vt 0.9607 0.3227 0.0000
vt 0.3529 0.8004 0.0000
vt 0.3529 0.7962 0.0000
vt 0.4222 0.7962 0.0000
vt 0.4222 0.8004 0.0000
vt 0.8304 0.6862 0.0000
vt 0.8263 0.6862 0.0000
vt 0.8263 0.6823 0.0000
vt 0.8304 0.6823 0.0000
vt 0.6354 0.7465 0.0000
vt 0.6354 0.7425 0.0000
vt 0.6396 0.7425 0.0000
vt 0.6396 0.7465 0.0000
vt 0.7960 0.6257 0.0000
vt 0.7960 0.6218 0.0000
vt 0.8653 0.6218 0.0000
vt 0.8653 0.6257 0.0000
vt 0.6052 0.3228 0.0000
vt 0.6052 0.3187 0.0000
vt 0.6745 0.3187 0.0000
vt 0.6745 0.3228 0.0000
vt 0.7960 0.6560 0.0000
vt 0.7960 0.6520 0.0000
vt 0.8653 0.6520 0.0000
vt 0.8653 0.6560 0.0000
vt 0.7006 0.3228 0.0000
vt 0.7006 0.3187 0.0000
vt 0.7699 0.3187 0.0000
vt 0.7699 0.3228 0.0000
vt 0.5507 0.8671 0.0000
vt 0.5466 0.8671 0.0000
vt 0.5466 0.8631 0.0000
vt 0.5507 0.8631 0.0000
vt 0.7309 0.7164 0.0000
vt 0.7309 0.7125 0.0000
vt 0.7350 0.7125 0.0000
vt 0.7350 0.7164 0.0000
vt 0.5098 0.7765 0.0000
vt 0.5098 0.7726 0.0000
vt 0.5791 0.7726 0.0000
vt 0.5791 0.7765 0.0000
vt 0.5098 0.6864 0.0000
vt 0.5098 0.6823 0.0000
vt 0.5791 0.6823 0.0000
vt 0.5791 0.6864 0.0000
vt 0.7006 0.6560 0.0000
vt 0.7006 0.6520 0.0000
vt 0.7699 0.6520 0.0000
vt 0.7699 0.6560 0.0000
vt 0.6052 0.6561 0.0000
vt 0.6052 0.6520 0.0000
vt 0.6745 0.6520 0.0000
vt 0.6745 0.6561 0.0000
vt 0.6396 0.7765 0.0000
vt 0.6354 0.7765 0.0000
vt 0.6354 0.7726 0.0000
vt 0.6396 0.7726 0.0000
vt 0.9217 0.6560 0.0000
vt 0.9217 0.6520 0.0000
vt 0.9258 0.6520 0.0000
vt 0.9258 0.6560 0.0000
vt 0.7006 0.6862 0.0000
vt 0.7006 0.6823 0.0000
vt 0.7699 0.6823 0.0000
vt 0.7699 0.6862 0.0000
vt 0.2008 0.9688 0.0000
vt 0.2008 0.9647 0.0000
vt 0.2701 0.9647 0.0000
vt 0.2701 0.9688 0.0000
vt 0.8915 0.6257 0.0000
vt 0.8915 0.6218 0.0000
vt 0.9607 0.6218 0.0000
vt 0.9607 0.6257 0.0000
vt 0.7006 0.6259 0.0000
vt 0.7006 0.6218 0.0000
vt 0.7699 0.6218 0.0000
vt 0.7699 0.6259 0.0000
vt 0.5875 0.8066 0.0000
vt 0.5833 0.8066 0.0000
vt 0.5833 0.8027 0.0000
vt 0.5875 0.8027 0.0000
vt 0.5466 0.8370 0.0000
vt 0.5466 0.8331 0.0000
vt 0.5507 0.8331 0.0000
vt 0.5507 0.8370 0.0000
vt 0.2962 0.9686 0.0000
vt 0.2962 0.9647 0.0000
vt 0.3655 0.9647 0.0000
vt 0.3655 0.9686 0.0000
vt 0.8527 0.4574 0.0000
vt 0.8527 0.4533 0.0000
vt 0.9220 0.4533 0.0000
vt 0.9220 0.4574 0.0000
vt 0.7960 0.3227 0.0000
vt 0.7960 0.3187 0.0000
vt 0.8653 0.3187 0.0000
vt 0.8653 0.3227 0.0000
vt 0.3529 0.7000 0.0000
vt 0.3529 0.6959 0.0000
vt 0.4222 0.6959 0.0000
vt 0.4222 0.7000 0.0000
vt 0.6093 0.7765 0.0000
vt 0.6052 0.7765 0.0000
vt 0.6052 0.7726 0.0000
vt 0.6093 0.7726 0.0000
vt 0.5098 0.8979 0.0000
vt 0.5098 0.8940 0.0000
vt 0.5139 0.8940 0.0000
vt 0.5139 0.8979 0.0000
vt 0.6052 0.7164 0.0000
vt 0.6052 0.7125 0.0000
vt 0.6745 0.7125 0.0000
vt 0.6745 0.7164 0.0000
vt 0.3529 0.8306 0.0000
vt 0.3529 0.8265 0.0000
vt 0.4222 0.8265 0.0000
vt 0.4222 0.8306 0.0000
vt 0.5098 0.7465 0.0000
vt 0.5098 0.7425 0.0000
vt 0.5791 0.7425 0.0000
vt 0.5791 0.7465 0.0000
vt 0.8527 0.1846 0.0000
vt 0.8527 0.1805 0.0000
vt 0.9220 0.1805 0.0000
vt 0.9220 0.1846 0.0000
vt 0.8002 0.6862 0.0000
vt 0.7960 0.6862 0.0000
vt 0.7960 0.6823 0.0000
vt 0.8002 0.6823 0.0000
vt 0.9547 0.2926 0.0000
vt 0.9547 0.2886 0.0000
vt 0.9588 0.2886 0.0000
vt 0.9588 0.2926 0.0000
vt 0.8593 0.2625 0.0000
vt 0.8593 0.2586 0.0000
vt 0.9286 0.2586 0.0000
vt 0.9286 0.2625 0.0000
vt 0.6052 0.6259 0.0000
vt 0.6052 0.6218 0.0000
vt 0.6745 0.6218 0.0000
vt 0.6745 0.6259 0.0000
vt 0.8593 0.2926 0.0000
vt 0.8593 0.2886 0.0000
vt 0.9286 0.2886 0.0000
vt 0.9286 0.2926 0.0000
vt 0.1054 0.9688 0.0000
vt 0.1054 0.9647 0.0000
vt 0.1747 0.9647 0.0000
vt 0.1747 0.9688 0.0000
vt 0.7047 0.7164 0.0000
vt 0.7006 0.7164 0.0000
vt 0.7006 0.7125 0.0000
vt 0.7047 0.7125 0.0000
vt 0.4549 0.9386 0.0000
vt 0.4549 0.9346 0.0000
vt 0.4590 0.9346 0.0000
vt 0.4590 0.9386 0.0000
vt 0.8593 0.5656 0.0000
vt 0.8593 0.5616 0.0000
vt 0.9286 0.5616 0.0000
vt 0.9286 0.5656 0.0000
vt 0.0100 0.9688 0.0000
vt 0.0100 0.9647 0.0000
vt 0.0793 0.9647 0.0000
vt 0.0793 0.9688 0.0000
vt 0.3595 0.9386 0.0000
vt 0.3595 0.9346 0.0000
vt 0.4288 0.9346 0.0000
vt 0.4288 0.9386 0.0000
vt 0.8527 0.4877 0.0000
vt 0.8527 0.4835 0.0000
vt 0.9220 0.4835 0.0000
vt 0.9220 0.4877 0.0000
vt 0.9588 0.2625 0.0000
vt 0.9547 0.2625 0.0000
vt 0.9547 0.2586 0.0000
vt 0.9588 0.2586 0.0000
vt 0.9547 0.5956 0.0000
vt 0.9547 0.5917 0.0000
vt 0.9588 0.5917 0.0000
vt 0.9588 0.5956 0.0000
vt 0.6052 0.6862 0.0000
vt 0.6052 0.6823 0.0000
vt 0.6745 0.6823 0.0000
vt 0.6745 0.6862 0.0000
vt 0.8527 0.1544 0.0000
vt 0.8527 0.1503 0.0000
vt 0.9220 0.1503 0.0000
vt 0.9220 0.1544 0.0000
vt 0.5098 0.7164 0.0000
vt 0.5098 0.7125 0.0000
vt 0.5791 0.7125 0.0000
vt 0.5791 0.7164 0.0000
vt 0.5098 0.6259 0.0000
vt 0.5098 0.6218 0.0000
vt 0.5791 0.6218 0.0000
vt 0.5791 0.6259 0.0000
vt 0.4590 0.9085 0.0000
vt 0.4549 0.9085 0.0000
vt 0.4549 0.9045 0.0000
vt 0.4590 0.9045 0.0000
vt 0.9547 0.5656 0.0000
vt 0.9547 0.5616 0.0000
vt 0.9588 0.5616 0.0000
vt 0.9588 0.5656 0.0000
vt 0.8593 0.5956 0.0000
vt 0.8593 0.5917 0.0000
vt 0.9286 0.5917 0.0000
vt 0.9286 0.5956 0.0000
vt 0.5098 0.3228 0.0000
vt 0.5098 0.3187 0.0000
vt 0.5791 0.3187 0.0000
vt 0.5791 0.3228 0.0000
vt 0.3595 0.9085 0.0000
vt 0.3595 0.9045 0.0000
vt 0.4288 0.9045 0.0000
vt 0.4288 0.9085 0.0000
vt 0.5098 0.6561 0.0000
vt 0.5098 0.6520 0.0000
vt 0.5791 0.6520 0.0000
vt 0.5791 0.6561 0.0000
# 408 texture coords

g Balcon
s 2
f 1/1/1 2/2/1 3/3/1 4/4/1 
s 4
f 5/5/2 6/6/2 7/7/2 8/8/2 
s 8
f 1/9/3 4/10/3 6/11/3 5/12/3 
s 16
f 4/13/4 3/14/4 7/15/4 6/16/4 
s 32
f 3/17/5 2/18/5 8/19/5 7/20/5 
s 64
f 2/21/6 1/22/6 5/23/6 8/24/6 
s 2
f 9/25/1 10/26/1 11/27/1 12/28/1 
s 4
f 13/29/2 14/30/2 15/31/2 16/32/2 
s 8
f 9/33/7 12/34/7 14/35/7 13/36/8 
s 16
f 12/37/4 11/38/4 15/39/4 14/40/4 
s 32
f 11/41/5 10/42/5 16/43/5 15/44/5 
s 64
f 10/45/6 9/46/6 13/47/6 16/48/6 
s 2
f 17/49/1 18/50/1 19/51/1 20/52/1 
s 4
f 21/53/2 22/54/2 23/55/2 24/56/2 
s 8
f 17/57/9 20/58/9 22/59/9 21/60/9 
s 16
f 20/61/4 19/62/4 23/63/4 22/64/4 
s 32
f 19/65/5 18/66/5 24/67/5 23/68/5 
s 64
f 18/69/6 17/70/6 21/71/6 24/72/6 
s 2
f 25/73/1 26/74/1 27/75/1 28/76/1 
s 4
f 29/77/2 30/78/2 31/79/2 32/80/2 
s 8
f 25/81/7 28/82/7 30/83/7 29/84/8 
s 16
f 28/85/4 27/86/4 31/87/4 30/88/4 
s 32
f 27/89/5 26/90/5 32/91/5 31/92/5 
s 64
f 26/93/6 25/94/6 29/95/6 32/96/6 
s 2
f 33/97/1 34/98/1 35/99/1 36/100/1 
s 4
f 37/101/2 38/102/2 39/103/2 40/104/2 
s 8
f 33/105/9 36/106/9 38/107/9 37/108/9 
s 16
f 36/109/4 35/110/4 39/111/4 38/112/4 
s 32
f 35/113/5 34/114/5 40/115/5 39/116/5 
s 64
f 34/117/6 33/118/6 37/119/6 40/120/6 
s 2
f 41/121/1 42/122/1 43/123/1 44/124/1 
s 4
f 45/125/2 46/126/2 47/127/2 48/128/2 
s 8
f 41/129/7 44/130/7 46/131/7 45/132/8 
s 16
f 44/133/4 43/134/4 47/135/4 46/136/4 
s 32
f 43/137/5 42/138/5 48/139/5 47/140/5 
s 64
f 42/141/6 41/142/6 45/143/6 48/144/6 
s 2
f 49/145/1 50/146/1 51/147/1 52/148/1 
s 4
f 53/149/2 54/150/2 55/151/2 56/152/2 
s 8
f 49/153/9 52/154/9 54/155/9 53/156/9 
s 16
f 52/157/4 51/158/4 55/159/4 54/160/4 
s 32
f 51/161/5 50/162/5 56/163/5 55/164/5 
s 64
f 50/165/6 49/166/6 53/167/6 56/168/6 
s 2
f 57/169/1 58/170/1 59/171/1 60/172/1 
s 4
f 61/173/2 62/174/2 63/175/2 64/176/2 
s 8
f 57/177/3 60/178/3 62/179/3 61/180/3 
s 16
f 60/181/10 59/182/10 63/183/10 62/184/10 
s 32
f 59/185/5 58/186/5 64/187/5 63/188/5 
s 64
f 58/189/6 57/190/6 61/191/6 64/192/6 
s 2
f 65/193/1 66/194/1 67/195/1 68/196/1 
s 4
f 69/197/2 70/198/2 71/199/2 72/200/2 
s 8
f 65/201/3 68/202/3 70/203/3 69/204/3 
s 16
f 68/205/10 67/206/10 71/207/10 70/208/10 
s 32
f 67/209/5 66/210/5 72/211/5 71/212/5 
s 64
f 66/213/6 65/214/6 69/215/6 72/216/6 
s 2
f 73/217/1 74/218/1 75/219/1 76/220/1 
s 4
f 77/221/2 78/222/2 79/223/2 80/224/2 
s 8
f 73/225/3 76/226/3 78/227/3 77/228/3 
s 16
f 76/229/10 75/230/10 79/231/10 78/232/10 
s 32
f 75/233/5 74/234/5 80/235/5 79/236/5 
s 64
f 74/237/6 73/238/6 77/239/6 80/240/6 
s 2
f 81/241/1 82/242/1 83/243/1 84/244/1 
s 4
f 85/245/2 86/246/2 87/247/2 88/248/2 
s 8
f 81/249/3 84/250/3 86/251/3 85/252/3 
s 16
f 84/253/10 83/254/10 87/255/10 86/256/10 
s 32
f 83/257/5 82/258/5 88/259/5 87/260/5 
s 64
f 82/261/6 81/262/6 85/263/6 88/264/6 
s 2
f 89/265/1 90/266/1 91/267/1 92/268/1 
s 4
f 93/269/2 94/270/2 95/271/2 96/272/2 
s 8
f 89/273/3 92/274/3 94/275/3 93/276/3 
s 16
f 92/277/10 91/278/10 95/279/10 94/280/10 
s 32
f 91/281/5 90/282/5 96/283/5 95/284/5 
s 64
f 90/285/6 89/286/6 93/287/6 96/288/6 
s 2
f 97/289/1 98/290/1 99/291/1 100/292/1 
s 4
f 101/293/2 102/294/2 103/295/2 104/296/2 
s 8
f 97/297/3 100/298/3 102/299/3 101/300/3 
s 16
f 100/301/10 99/302/10 103/303/10 102/304/10 
s 32
f 99/305/5 98/306/5 104/307/5 103/308/5 
s 64
f 98/309/6 97/310/6 101/311/6 104/312/6 
s 2
f 105/313/1 106/314/1 107/315/1 108/316/1 
s 4
f 109/317/2 110/318/2 111/319/2 112/320/2 
s 8
f 105/321/3 108/322/3 110/323/3 109/324/3 
s 16
f 108/325/10 107/326/10 111/327/10 110/328/10 
s 32
f 107/329/5 106/330/5 112/331/5 111/332/5 
s 64
f 106/333/6 105/334/6 109/335/6 112/336/6 
s 2
f 113/337/1 114/338/1 115/339/1 116/340/1 
s 4
f 117/341/2 118/342/2 119/343/2 120/344/2 
s 8
f 113/345/3 116/346/3 118/347/3 117/348/3 
s 16
f 116/349/10 115/350/10 119/351/10 118/352/10 
s 32
f 115/353/5 114/354/5 120/355/5 119/356/5 
s 64
f 114/357/6 113/358/6 117/359/6 120/360/6 
s 2
f 121/361/1 122/362/1 123/363/1 124/364/1 
s 4
f 125/365/2 126/366/2 127/367/2 128/368/2 
s 8
f 121/369/3 124/370/3 126/371/3 125/372/3 
s 16
f 124/373/10 123/374/10 127/375/10 126/376/10 
s 32
f 123/377/5 122/378/5 128/379/5 127/380/5 
s 64
f 122/381/6 121/382/6 125/383/6 128/384/6 
s 2
f 129/385/1 130/386/1 131/387/1 132/388/1 
s 4
f 133/389/2 134/390/2 135/391/2 136/392/2 
s 8
f 129/393/3 132/394/3 134/395/3 133/396/3 
s 16
f 132/397/10 131/398/10 135/399/10 134/400/10 
s 32
f 131/401/5 130/402/5 136/403/5 135/404/5 
s 64
f 130/405/6 129/406/6 133/407/6 136/408/6 
# 102 polygons

